<svg width="107" height="107" viewBox="0 0 107 107" fill="none" xmlns="http://www.w3.org/2000/svg">
<rect width="107" height="107" rx="16.1509" fill="#DC2F02"/>
<path d="M33.9507 44.4611L33.951 44.4608C34.9129 43.4495 35.6843 43.4591 36.1005 43.663C36.5745 43.8952 37.1309 44.6267 37.1309 46.0692V59.5744C37.1309 62.6165 38.8479 65.8817 41.1705 68.3557C43.4897 70.8261 46.6261 72.7331 49.7022 72.7726C52.8905 72.8145 55.5403 70.8594 57.342 68.3313C59.1483 65.7969 60.2279 62.5283 60.2279 59.5744C60.2279 55.8251 58.3382 52.9801 56.0439 50.4649C55.1203 49.4523 54.1027 48.4637 53.0965 47.4863C52.8579 47.2544 52.6199 47.0232 52.3839 46.7924C51.1394 45.5752 49.9338 44.354 48.8801 43.0362C46.7895 40.4217 45.3255 37.4646 45.4559 33.5373C45.5877 29.568 47.3524 24.4661 52.0503 17.5993C52.5129 16.9232 52.8826 16.4877 53.1592 16.2388C53.1594 16.2397 53.1597 16.2406 53.1599 16.2414C53.2587 16.6357 53.3218 17.2557 53.3218 18.1379C53.3218 22.412 55.1511 25.8727 57.7598 29.019C59.7025 31.362 62.1445 33.6033 64.6463 35.8996C65.4637 36.6498 66.2875 37.4059 67.1023 38.1733C73.7793 44.4617 80.2555 51.8425 80.2555 64.4854C80.2555 72.3884 77.6597 79.0542 73.1598 83.7377C68.6638 88.4171 62.1995 91.1889 54.3194 91.1889C38.597 91.1889 27.0787 80.1569 27.0787 64.4854C27.0787 55.6888 30.0499 48.5587 33.9507 44.4611ZM53.4439 16.0325C53.4437 16.0331 53.4384 16.0356 53.4284 16.0384C53.439 16.0334 53.444 16.032 53.4439 16.0325Z" fill="#370617" stroke="#370617" stroke-width="1.99509"/>
</svg>
